<?xml version="1.0" encoding="iso-8859-1"?>
<!-- Generator: Adobe Illustrator 19.0.0, SVG Export Plug-In . SVG Version: 6.00 Build 0)  -->
<svg version="1.1" id="Capa_1" xmlns="http://www.w3.org/2000/svg" xmlns:xlink="http://www.w3.org/1999/xlink" x="0px" y="0px"
	 viewBox="0 0 512 512" style="enable-background:new 0 0 512 512;" xml:space="preserve">
<path style="fill:#507CDD;" d="M279.656,53.853H67.899C30.399,53.853,0,84.253,0,121.752v54.544
	c0,29.797,19.201,55.092,45.898,64.234c-2.87,19.199-11.817,37.113-25.71,51.005l0,0c-4.676,4.676-1.364,12.672,5.249,12.672l0,0
	c36.657,0,69.527-22.579,82.682-56.794l1.238-3.219h170.299c37.5,0,67.899-30.4,67.899-67.9V121.75
	C347.556,84.253,317.156,53.853,279.656,53.853z"/>
<path style="opacity:0.1;enable-background:new    ;" d="M308.291,60.186c10.448,11.941,16.793,27.563,16.793,44.677v54.544
	c0,37.5-30.4,67.9-67.9,67.9H90.334c-2.078,0-3.941,1.28-4.687,3.219l0,0c-10.201,26.534-32.263,46.061-58.749,53.495
	c-2.102,2.627-4.347,5.156-6.751,7.557c-4.674,4.668-1.49,12.632,5.116,12.632h0.171c36.658,0,69.529-22.578,82.685-56.794
	l1.238-3.219h170.299c37.5,0,67.899-30.4,67.899-67.899v-54.544C347.556,94.487,331.477,70.988,308.291,60.186z"/>
<g>
	<path style="fill:#394049;" d="M264.978,113.66H91.509c-4.142,0-7.5-3.358-7.5-7.5c0-4.143,3.358-7.5,7.5-7.5h173.469
		c4.142,0,7.5,3.357,7.5,7.5S269.12,113.66,264.978,113.66z"/>
	<path style="fill:#394049;" d="M229.015,144.782H91.509c-4.142,0-7.5-3.357-7.5-7.5s3.358-7.5,7.5-7.5h137.505
		c4.142,0,7.5,3.357,7.5,7.5C236.515,141.425,233.157,144.782,229.015,144.782z"/>
	<path style="fill:#394049;" d="M229.015,175.904H91.509c-4.142,0-7.5-3.357-7.5-7.5s3.358-7.5,7.5-7.5h137.505
		c4.142,0,7.5,3.357,7.5,7.5C236.515,172.547,233.157,175.904,229.015,175.904z"/>
</g>
<path style="fill:#76C9D2;" d="M512,330.235v-54.544c0-37.5-30.4-67.899-67.899-67.899H232.344c-37.5,0-67.899,30.4-67.899,67.899
	v54.544c0,37.5,30.4,67.899,67.899,67.899h170.299l1.237,3.219c13.155,34.216,46.025,56.794,82.682,56.794l0,0
	c6.614,0,9.926-7.996,5.249-12.673l0,0c-13.893-13.893-22.84-31.806-25.71-51.005C492.799,385.326,512,360.031,512,330.235z"/>
<path style="opacity:0.1;enable-background:new    ;" d="M399.986,392.043c-0.746-1.939-2.609-3.219-4.686-3.219H207.208
	c-3.584,0-7.101-0.282-10.535-0.817c10.367,6.415,22.584,10.127,35.671,10.127h170.248
	C401.653,396.148,400.783,394.117,399.986,392.043L399.986,392.043z M512,330.235v-54.544c0-33.916-24.868-62.019-57.364-67.082
	c19.339,11.966,32.228,33.36,32.228,57.772v54.544c0,26.486-15.171,49.415-37.293,60.605c-5.207,2.634-7.938,8.471-6.405,14.102
	c4.137,15.196,12.178,29.202,23.509,40.533l0,0c4.677,4.677,1.364,12.673-5.249,12.673l0,0c-6.059,0-12.013-0.619-17.793-1.804
	c12.864,7.132,27.56,11.113,42.929,11.113l0,0c6.614,0,9.926-7.996,5.249-12.673l0,0c-13.893-13.893-22.84-31.806-25.71-51.005
	C492.799,385.326,512,360.031,512,330.235z"/>
<g>
	<path style="fill:#394049;" d="M250.688,302.946c-4.142,0-7.5-3.357-7.5-7.5v-9.573c0-4.142,3.358-7.5,7.5-7.5s7.5,3.358,7.5,7.5
		v9.573C258.188,299.589,254.83,302.946,250.688,302.946z"/>
	<path style="fill:#394049;" d="M424.327,302.946c-4.142,0-7.5-3.357-7.5-7.5v-9.573c0-4.142,3.358-7.5,7.5-7.5s7.5,3.358,7.5,7.5
		v9.573C431.827,299.589,428.469,302.946,424.327,302.946z"/>
	<path style="fill:#394049;" d="M337.507,324.094c-10.653,0-20.31-6.302-24.601-16.055c-1.668-3.792,0.053-8.218,3.844-9.886
		c3.79-1.665,8.217,0.054,9.885,3.845c1.896,4.311,6.164,7.096,10.871,7.096s8.974-2.785,10.871-7.095
		c1.668-3.792,6.094-5.513,9.886-3.843c3.791,1.669,5.512,6.095,3.843,9.886C357.815,317.793,348.159,324.094,337.507,324.094z"/>
</g>
<g>
</g>
<g>
</g>
<g>
</g>
<g>
</g>
<g>
</g>
<g>
</g>
<g>
</g>
<g>
</g>
<g>
</g>
<g>
</g>
<g>
</g>
<g>
</g>
<g>
</g>
<g>
</g>
<g>
</g>
</svg>
